<mxfile host="Electron" agent="Mozilla/5.0 (Windows NT 10.0; Win64; x64) AppleWebKit/537.36 (KHTML, like Gecko) draw.io/27.0.5 Chrome/134.0.6998.205 Electron/35.3.0 Safari/537.36" version="27.0.5">
  <diagram name="Page-1" id="7o3Ip32tz-Jz37154JsA">
    <mxGraphModel dx="2377" dy="1415" grid="1" gridSize="10" guides="1" tooltips="1" connect="1" arrows="1" fold="1" page="1" pageScale="1" pageWidth="850" pageHeight="1100" math="0" shadow="0">
      <root>
        <mxCell id="0" />
        <mxCell id="1" parent="0" />
        <mxCell id="HvyBbh3bn9R6v-NUaFOo-3" style="edgeStyle=orthogonalEdgeStyle;rounded=0;orthogonalLoop=1;jettySize=auto;html=1;exitX=1;exitY=0.5;exitDx=0;exitDy=0;entryX=0;entryY=0.5;entryDx=0;entryDy=0;" edge="1" parent="1" source="HvyBbh3bn9R6v-NUaFOo-1" target="HvyBbh3bn9R6v-NUaFOo-2">
          <mxGeometry relative="1" as="geometry" />
        </mxCell>
        <mxCell id="HvyBbh3bn9R6v-NUaFOo-5" style="edgeStyle=orthogonalEdgeStyle;rounded=0;orthogonalLoop=1;jettySize=auto;html=1;exitX=0.5;exitY=1;exitDx=0;exitDy=0;entryX=0.5;entryY=0;entryDx=0;entryDy=0;" edge="1" parent="1" source="HvyBbh3bn9R6v-NUaFOo-1" target="HvyBbh3bn9R6v-NUaFOo-4">
          <mxGeometry relative="1" as="geometry" />
        </mxCell>
        <mxCell id="HvyBbh3bn9R6v-NUaFOo-1" value="A" style="ellipse;whiteSpace=wrap;html=1;aspect=fixed;" vertex="1" parent="1">
          <mxGeometry x="385" y="20" width="80" height="80" as="geometry" />
        </mxCell>
        <mxCell id="HvyBbh3bn9R6v-NUaFOo-53" style="edgeStyle=orthogonalEdgeStyle;rounded=0;orthogonalLoop=1;jettySize=auto;html=1;exitX=1;exitY=0.5;exitDx=0;exitDy=0;entryX=0.5;entryY=1;entryDx=0;entryDy=0;" edge="1" parent="1" source="HvyBbh3bn9R6v-NUaFOo-2" target="HvyBbh3bn9R6v-NUaFOo-48">
          <mxGeometry relative="1" as="geometry">
            <Array as="points">
              <mxPoint x="1360" y="60" />
              <mxPoint x="1360" y="1280" />
              <mxPoint x="485" y="1280" />
            </Array>
          </mxGeometry>
        </mxCell>
        <mxCell id="HvyBbh3bn9R6v-NUaFOo-2" value="RuntimeException - B" style="rounded=0;whiteSpace=wrap;html=1;" vertex="1" parent="1">
          <mxGeometry x="550" y="30" width="120" height="60" as="geometry" />
        </mxCell>
        <mxCell id="HvyBbh3bn9R6v-NUaFOo-7" value="" style="edgeStyle=orthogonalEdgeStyle;rounded=0;orthogonalLoop=1;jettySize=auto;html=1;" edge="1" parent="1" target="HvyBbh3bn9R6v-NUaFOo-6">
          <mxGeometry relative="1" as="geometry">
            <mxPoint x="425" y="340" as="sourcePoint" />
          </mxGeometry>
        </mxCell>
        <mxCell id="HvyBbh3bn9R6v-NUaFOo-47" value="" style="edgeStyle=orthogonalEdgeStyle;rounded=0;orthogonalLoop=1;jettySize=auto;html=1;" edge="1" parent="1" source="HvyBbh3bn9R6v-NUaFOo-4" target="HvyBbh3bn9R6v-NUaFOo-46">
          <mxGeometry relative="1" as="geometry" />
        </mxCell>
        <mxCell id="HvyBbh3bn9R6v-NUaFOo-4" value="sum=0" style="ellipse;whiteSpace=wrap;html=1;aspect=fixed;" vertex="1" parent="1">
          <mxGeometry x="385" y="150" width="80" height="80" as="geometry" />
        </mxCell>
        <mxCell id="HvyBbh3bn9R6v-NUaFOo-9" value="" style="edgeStyle=orthogonalEdgeStyle;rounded=0;orthogonalLoop=1;jettySize=auto;html=1;" edge="1" parent="1" source="HvyBbh3bn9R6v-NUaFOo-6" target="HvyBbh3bn9R6v-NUaFOo-8">
          <mxGeometry relative="1" as="geometry" />
        </mxCell>
        <mxCell id="HvyBbh3bn9R6v-NUaFOo-21" style="edgeStyle=orthogonalEdgeStyle;rounded=0;orthogonalLoop=1;jettySize=auto;html=1;exitX=1;exitY=0.5;exitDx=0;exitDy=0;" edge="1" parent="1" source="HvyBbh3bn9R6v-NUaFOo-6" target="HvyBbh3bn9R6v-NUaFOo-22">
          <mxGeometry relative="1" as="geometry">
            <mxPoint x="589.9999999999998" y="560" as="targetPoint" />
          </mxGeometry>
        </mxCell>
        <mxCell id="HvyBbh3bn9R6v-NUaFOo-6" value="C.2&amp;nbsp;&lt;div&gt;(i&amp;lt;allItems.size())&lt;/div&gt;" style="ellipse;whiteSpace=wrap;html=1;" vertex="1" parent="1">
          <mxGeometry x="385" y="410" width="80" height="80" as="geometry" />
        </mxCell>
        <mxCell id="HvyBbh3bn9R6v-NUaFOo-11" value="" style="edgeStyle=orthogonalEdgeStyle;rounded=0;orthogonalLoop=1;jettySize=auto;html=1;" edge="1" parent="1" source="HvyBbh3bn9R6v-NUaFOo-8" target="HvyBbh3bn9R6v-NUaFOo-10">
          <mxGeometry relative="1" as="geometry" />
        </mxCell>
        <mxCell id="HvyBbh3bn9R6v-NUaFOo-39" value="" style="edgeStyle=orthogonalEdgeStyle;rounded=0;orthogonalLoop=1;jettySize=auto;html=1;" edge="1" parent="1" source="HvyBbh3bn9R6v-NUaFOo-8" target="HvyBbh3bn9R6v-NUaFOo-37">
          <mxGeometry relative="1" as="geometry" />
        </mxCell>
        <mxCell id="HvyBbh3bn9R6v-NUaFOo-8" value="D" style="ellipse;whiteSpace=wrap;html=1;" vertex="1" parent="1">
          <mxGeometry x="280" y="530" width="80" height="80" as="geometry" />
        </mxCell>
        <mxCell id="HvyBbh3bn9R6v-NUaFOo-49" style="edgeStyle=orthogonalEdgeStyle;rounded=0;orthogonalLoop=1;jettySize=auto;html=1;exitX=0;exitY=0.5;exitDx=0;exitDy=0;entryX=0;entryY=0.5;entryDx=0;entryDy=0;" edge="1" parent="1" source="HvyBbh3bn9R6v-NUaFOo-10" target="HvyBbh3bn9R6v-NUaFOo-48">
          <mxGeometry relative="1" as="geometry" />
        </mxCell>
        <mxCell id="HvyBbh3bn9R6v-NUaFOo-10" value="RuntimeException&lt;div&gt;(Invalid item!) - E&lt;/div&gt;" style="whiteSpace=wrap;html=1;" vertex="1" parent="1">
          <mxGeometry x="80" y="540" width="120" height="60" as="geometry" />
        </mxCell>
        <mxCell id="HvyBbh3bn9R6v-NUaFOo-15" value="" style="edgeStyle=orthogonalEdgeStyle;rounded=0;orthogonalLoop=1;jettySize=auto;html=1;" edge="1" parent="1" source="HvyBbh3bn9R6v-NUaFOo-12" target="HvyBbh3bn9R6v-NUaFOo-14">
          <mxGeometry relative="1" as="geometry" />
        </mxCell>
        <mxCell id="HvyBbh3bn9R6v-NUaFOo-17" value="" style="edgeStyle=orthogonalEdgeStyle;rounded=0;orthogonalLoop=1;jettySize=auto;html=1;" edge="1" parent="1" source="HvyBbh3bn9R6v-NUaFOo-12" target="HvyBbh3bn9R6v-NUaFOo-16">
          <mxGeometry relative="1" as="geometry" />
        </mxCell>
        <mxCell id="HvyBbh3bn9R6v-NUaFOo-12" value="H" style="ellipse;whiteSpace=wrap;html=1;" vertex="1" parent="1">
          <mxGeometry x="280" y="780" width="80" height="80" as="geometry" />
        </mxCell>
        <mxCell id="HvyBbh3bn9R6v-NUaFOo-83" style="edgeStyle=orthogonalEdgeStyle;rounded=0;orthogonalLoop=1;jettySize=auto;html=1;exitX=0;exitY=0.5;exitDx=0;exitDy=0;entryX=0.5;entryY=0;entryDx=0;entryDy=0;" edge="1" parent="1" source="HvyBbh3bn9R6v-NUaFOo-14" target="HvyBbh3bn9R6v-NUaFOo-6">
          <mxGeometry relative="1" as="geometry">
            <Array as="points">
              <mxPoint x="20" y="820" />
              <mxPoint x="20" y="390" />
              <mxPoint x="390" y="390" />
              <mxPoint x="390" y="410" />
            </Array>
          </mxGeometry>
        </mxCell>
        <mxCell id="HvyBbh3bn9R6v-NUaFOo-14" value="I" style="ellipse;whiteSpace=wrap;html=1;" vertex="1" parent="1">
          <mxGeometry x="80" y="780" width="80" height="80" as="geometry" />
        </mxCell>
        <mxCell id="HvyBbh3bn9R6v-NUaFOo-55" value="" style="edgeStyle=orthogonalEdgeStyle;rounded=0;orthogonalLoop=1;jettySize=auto;html=1;" edge="1" parent="1" source="HvyBbh3bn9R6v-NUaFOo-16" target="HvyBbh3bn9R6v-NUaFOo-54">
          <mxGeometry relative="1" as="geometry">
            <Array as="points">
              <mxPoint x="320" y="1070" />
            </Array>
          </mxGeometry>
        </mxCell>
        <mxCell id="HvyBbh3bn9R6v-NUaFOo-58" style="edgeStyle=orthogonalEdgeStyle;rounded=0;orthogonalLoop=1;jettySize=auto;html=1;exitX=0;exitY=0.5;exitDx=0;exitDy=0;entryX=0;entryY=0.5;entryDx=0;entryDy=0;" edge="1" parent="1" source="HvyBbh3bn9R6v-NUaFOo-16" target="HvyBbh3bn9R6v-NUaFOo-54">
          <mxGeometry relative="1" as="geometry">
            <Array as="points">
              <mxPoint x="120" y="970" />
              <mxPoint x="120" y="1120" />
            </Array>
          </mxGeometry>
        </mxCell>
        <mxCell id="HvyBbh3bn9R6v-NUaFOo-16" value="J" style="ellipse;whiteSpace=wrap;html=1;" vertex="1" parent="1">
          <mxGeometry x="280" y="930" width="80" height="80" as="geometry" />
        </mxCell>
        <mxCell id="HvyBbh3bn9R6v-NUaFOo-20" value="Item item=&lt;div&gt;allItems.get(i)&lt;/div&gt;" style="ellipse;whiteSpace=wrap;html=1;aspect=fixed;" vertex="1" parent="1">
          <mxGeometry x="280" y="410" width="80" height="80" as="geometry" />
        </mxCell>
        <mxCell id="HvyBbh3bn9R6v-NUaFOo-23" style="edgeStyle=orthogonalEdgeStyle;rounded=0;orthogonalLoop=1;jettySize=auto;html=1;" edge="1" parent="1" source="HvyBbh3bn9R6v-NUaFOo-22" target="HvyBbh3bn9R6v-NUaFOo-24">
          <mxGeometry relative="1" as="geometry">
            <mxPoint x="750" y="690" as="targetPoint" />
          </mxGeometry>
        </mxCell>
        <mxCell id="HvyBbh3bn9R6v-NUaFOo-28" value="" style="edgeStyle=orthogonalEdgeStyle;rounded=0;orthogonalLoop=1;jettySize=auto;html=1;" edge="1" parent="1" source="HvyBbh3bn9R6v-NUaFOo-61" target="HvyBbh3bn9R6v-NUaFOo-27">
          <mxGeometry relative="1" as="geometry" />
        </mxCell>
        <mxCell id="HvyBbh3bn9R6v-NUaFOo-22" value="K" style="ellipse;whiteSpace=wrap;html=1;aspect=fixed;" vertex="1" parent="1">
          <mxGeometry x="549.9999999999998" y="410" width="80" height="80" as="geometry" />
        </mxCell>
        <mxCell id="HvyBbh3bn9R6v-NUaFOo-26" value="" style="edgeStyle=orthogonalEdgeStyle;rounded=0;orthogonalLoop=1;jettySize=auto;html=1;" edge="1" parent="1" source="HvyBbh3bn9R6v-NUaFOo-24" target="HvyBbh3bn9R6v-NUaFOo-25">
          <mxGeometry relative="1" as="geometry" />
        </mxCell>
        <mxCell id="HvyBbh3bn9R6v-NUaFOo-24" value="O" style="ellipse;whiteSpace=wrap;html=1;aspect=fixed;" vertex="1" parent="1">
          <mxGeometry x="809.9999999999998" y="650" width="80" height="80" as="geometry" />
        </mxCell>
        <mxCell id="HvyBbh3bn9R6v-NUaFOo-50" style="edgeStyle=orthogonalEdgeStyle;rounded=0;orthogonalLoop=1;jettySize=auto;html=1;exitX=1;exitY=0.5;exitDx=0;exitDy=0;entryX=1;entryY=0.75;entryDx=0;entryDy=0;" edge="1" parent="1" source="HvyBbh3bn9R6v-NUaFOo-25" target="HvyBbh3bn9R6v-NUaFOo-48">
          <mxGeometry relative="1" as="geometry">
            <Array as="points">
              <mxPoint x="1230" y="850" />
              <mxPoint x="1230" y="1245" />
            </Array>
          </mxGeometry>
        </mxCell>
        <mxCell id="HvyBbh3bn9R6v-NUaFOo-25" value="RuntimeException&lt;div&gt;(Invalid&amp;nbsp;&lt;span style=&quot;background-color: transparent; color: light-dark(rgb(0, 0, 0), rgb(255, 255, 255));&quot;&gt;card number)&lt;/span&gt;&lt;/div&gt;" style="whiteSpace=wrap;html=1;" vertex="1" parent="1">
          <mxGeometry x="789.9999999999998" y="820" width="120" height="60" as="geometry" />
        </mxCell>
        <mxCell id="HvyBbh3bn9R6v-NUaFOo-30" value="" style="edgeStyle=orthogonalEdgeStyle;rounded=0;orthogonalLoop=1;jettySize=auto;html=1;" edge="1" parent="1" source="HvyBbh3bn9R6v-NUaFOo-70" target="HvyBbh3bn9R6v-NUaFOo-29">
          <mxGeometry relative="1" as="geometry" />
        </mxCell>
        <mxCell id="HvyBbh3bn9R6v-NUaFOo-27" value="L.1(j=0)" style="ellipse;whiteSpace=wrap;html=1;aspect=fixed;" vertex="1" parent="1">
          <mxGeometry x="549.9999999999998" y="710" width="80" height="80" as="geometry" />
        </mxCell>
        <mxCell id="HvyBbh3bn9R6v-NUaFOo-63" value="" style="edgeStyle=orthogonalEdgeStyle;rounded=0;orthogonalLoop=1;jettySize=auto;html=1;" edge="1" parent="1" source="HvyBbh3bn9R6v-NUaFOo-29" target="HvyBbh3bn9R6v-NUaFOo-31">
          <mxGeometry relative="1" as="geometry" />
        </mxCell>
        <mxCell id="HvyBbh3bn9R6v-NUaFOo-68" style="edgeStyle=orthogonalEdgeStyle;rounded=0;orthogonalLoop=1;jettySize=auto;html=1;exitX=0;exitY=0.5;exitDx=0;exitDy=0;entryX=1;entryY=0.5;entryDx=0;entryDy=0;" edge="1" parent="1" source="HvyBbh3bn9R6v-NUaFOo-29" target="HvyBbh3bn9R6v-NUaFOo-67">
          <mxGeometry relative="1" as="geometry" />
        </mxCell>
        <mxCell id="HvyBbh3bn9R6v-NUaFOo-29" value="M" style="ellipse;whiteSpace=wrap;html=1;aspect=fixed;" vertex="1" parent="1">
          <mxGeometry x="549.9999999999998" y="990" width="80" height="80" as="geometry" />
        </mxCell>
        <mxCell id="HvyBbh3bn9R6v-NUaFOo-36" value="" style="edgeStyle=orthogonalEdgeStyle;rounded=0;orthogonalLoop=1;jettySize=auto;html=1;" edge="1" parent="1" source="HvyBbh3bn9R6v-NUaFOo-31" target="HvyBbh3bn9R6v-NUaFOo-35">
          <mxGeometry relative="1" as="geometry" />
        </mxCell>
        <mxCell id="HvyBbh3bn9R6v-NUaFOo-31" value="N" style="ellipse;whiteSpace=wrap;html=1;" vertex="1" parent="1">
          <mxGeometry x="669.9999999999998" y="990" width="80" height="80" as="geometry" />
        </mxCell>
        <mxCell id="HvyBbh3bn9R6v-NUaFOo-52" style="edgeStyle=orthogonalEdgeStyle;rounded=0;orthogonalLoop=1;jettySize=auto;html=1;exitX=1;exitY=0.5;exitDx=0;exitDy=0;entryX=1;entryY=0.25;entryDx=0;entryDy=0;" edge="1" parent="1" source="HvyBbh3bn9R6v-NUaFOo-35" target="HvyBbh3bn9R6v-NUaFOo-48">
          <mxGeometry relative="1" as="geometry" />
        </mxCell>
        <mxCell id="HvyBbh3bn9R6v-NUaFOo-35" value="RuntimeException&lt;div&gt;&lt;div&gt;(Invalid character&amp;nbsp;&lt;/div&gt;&lt;div&gt;in card number)&lt;/div&gt;&lt;/div&gt;" style="whiteSpace=wrap;html=1;" vertex="1" parent="1">
          <mxGeometry x="809.9999999999998" y="1000" width="120" height="60" as="geometry" />
        </mxCell>
        <mxCell id="HvyBbh3bn9R6v-NUaFOo-40" value="" style="edgeStyle=orthogonalEdgeStyle;rounded=0;orthogonalLoop=1;jettySize=auto;html=1;" edge="1" parent="1" source="HvyBbh3bn9R6v-NUaFOo-37" target="HvyBbh3bn9R6v-NUaFOo-12">
          <mxGeometry relative="1" as="geometry" />
        </mxCell>
        <mxCell id="HvyBbh3bn9R6v-NUaFOo-43" value="" style="edgeStyle=orthogonalEdgeStyle;rounded=0;orthogonalLoop=1;jettySize=auto;html=1;" edge="1" parent="1" source="HvyBbh3bn9R6v-NUaFOo-37" target="HvyBbh3bn9R6v-NUaFOo-42">
          <mxGeometry relative="1" as="geometry" />
        </mxCell>
        <mxCell id="HvyBbh3bn9R6v-NUaFOo-37" value="F" style="ellipse;whiteSpace=wrap;html=1;aspect=fixed;" vertex="1" parent="1">
          <mxGeometry x="280" y="660" width="80" height="80" as="geometry" />
        </mxCell>
        <mxCell id="HvyBbh3bn9R6v-NUaFOo-45" style="edgeStyle=orthogonalEdgeStyle;rounded=0;orthogonalLoop=1;jettySize=auto;html=1;exitX=0.5;exitY=1;exitDx=0;exitDy=0;entryX=0;entryY=0;entryDx=0;entryDy=0;" edge="1" parent="1" source="HvyBbh3bn9R6v-NUaFOo-42" target="HvyBbh3bn9R6v-NUaFOo-12">
          <mxGeometry relative="1" as="geometry" />
        </mxCell>
        <mxCell id="HvyBbh3bn9R6v-NUaFOo-42" value="G" style="ellipse;whiteSpace=wrap;html=1;aspect=fixed;" vertex="1" parent="1">
          <mxGeometry x="80" y="660" width="80" height="80" as="geometry" />
        </mxCell>
        <mxCell id="HvyBbh3bn9R6v-NUaFOo-46" value="&amp;nbsp;C.1(i=0;)" style="ellipse;whiteSpace=wrap;html=1;" vertex="1" parent="1">
          <mxGeometry x="385" y="280" width="80" height="80" as="geometry" />
        </mxCell>
        <mxCell id="HvyBbh3bn9R6v-NUaFOo-48" value="END" style="rounded=0;whiteSpace=wrap;html=1;" vertex="1" parent="1">
          <mxGeometry x="425" y="1200" width="120" height="60" as="geometry" />
        </mxCell>
        <mxCell id="HvyBbh3bn9R6v-NUaFOo-57" style="edgeStyle=orthogonalEdgeStyle;rounded=0;orthogonalLoop=1;jettySize=auto;html=1;exitX=1;exitY=0.5;exitDx=0;exitDy=0;entryX=0.5;entryY=1;entryDx=0;entryDy=0;" edge="1" parent="1" source="HvyBbh3bn9R6v-NUaFOo-54" target="HvyBbh3bn9R6v-NUaFOo-6">
          <mxGeometry relative="1" as="geometry" />
        </mxCell>
        <mxCell id="HvyBbh3bn9R6v-NUaFOo-54" value="C.3(i++)" style="ellipse;whiteSpace=wrap;html=1;" vertex="1" parent="1">
          <mxGeometry x="280" y="1080" width="80" height="80" as="geometry" />
        </mxCell>
        <mxCell id="HvyBbh3bn9R6v-NUaFOo-60" value="" style="edgeStyle=orthogonalEdgeStyle;rounded=0;orthogonalLoop=1;jettySize=auto;html=1;" edge="1" parent="1" source="HvyBbh3bn9R6v-NUaFOo-22" target="HvyBbh3bn9R6v-NUaFOo-59">
          <mxGeometry relative="1" as="geometry">
            <mxPoint x="590" y="490" as="sourcePoint" />
            <mxPoint x="590" y="670" as="targetPoint" />
          </mxGeometry>
        </mxCell>
        <mxCell id="HvyBbh3bn9R6v-NUaFOo-59" value="string allowed" style="ellipse;whiteSpace=wrap;html=1;aspect=fixed;" vertex="1" parent="1">
          <mxGeometry x="565" y="510" width="50" height="50" as="geometry" />
        </mxCell>
        <mxCell id="HvyBbh3bn9R6v-NUaFOo-62" value="" style="edgeStyle=orthogonalEdgeStyle;rounded=0;orthogonalLoop=1;jettySize=auto;html=1;" edge="1" parent="1" source="HvyBbh3bn9R6v-NUaFOo-59" target="HvyBbh3bn9R6v-NUaFOo-61">
          <mxGeometry relative="1" as="geometry">
            <mxPoint x="590" y="570" as="sourcePoint" />
            <mxPoint x="590" y="670" as="targetPoint" />
          </mxGeometry>
        </mxCell>
        <mxCell id="HvyBbh3bn9R6v-NUaFOo-61" value="char[]chars" style="ellipse;whiteSpace=wrap;html=1;aspect=fixed;" vertex="1" parent="1">
          <mxGeometry x="565" y="580" width="50" height="50" as="geometry" />
        </mxCell>
        <mxCell id="HvyBbh3bn9R6v-NUaFOo-65" value="" style="edgeStyle=orthogonalEdgeStyle;rounded=0;orthogonalLoop=1;jettySize=auto;html=1;" edge="1" parent="1" source="HvyBbh3bn9R6v-NUaFOo-27" target="HvyBbh3bn9R6v-NUaFOo-64">
          <mxGeometry relative="1" as="geometry">
            <mxPoint x="590" y="790" as="sourcePoint" />
            <mxPoint x="590" y="920" as="targetPoint" />
          </mxGeometry>
        </mxCell>
        <mxCell id="HvyBbh3bn9R6v-NUaFOo-64" value="L.2&lt;div&gt;(j&amp;lt;cardNumber.length())&lt;/div&gt;" style="ellipse;whiteSpace=wrap;html=1;aspect=fixed;" vertex="1" parent="1">
          <mxGeometry x="549.9999999999998" y="810" width="80" height="80" as="geometry" />
        </mxCell>
        <mxCell id="HvyBbh3bn9R6v-NUaFOo-69" style="edgeStyle=orthogonalEdgeStyle;rounded=0;orthogonalLoop=1;jettySize=auto;html=1;exitX=0;exitY=0.5;exitDx=0;exitDy=0;entryX=0;entryY=0.5;entryDx=0;entryDy=0;" edge="1" parent="1" source="HvyBbh3bn9R6v-NUaFOo-67" target="HvyBbh3bn9R6v-NUaFOo-27">
          <mxGeometry relative="1" as="geometry" />
        </mxCell>
        <mxCell id="HvyBbh3bn9R6v-NUaFOo-67" value="L.3(j++)" style="ellipse;whiteSpace=wrap;html=1;aspect=fixed;" vertex="1" parent="1">
          <mxGeometry x="460" y="997.5" width="65" height="65" as="geometry" />
        </mxCell>
        <mxCell id="HvyBbh3bn9R6v-NUaFOo-71" value="" style="edgeStyle=orthogonalEdgeStyle;rounded=0;orthogonalLoop=1;jettySize=auto;html=1;" edge="1" parent="1" source="HvyBbh3bn9R6v-NUaFOo-64" target="HvyBbh3bn9R6v-NUaFOo-70">
          <mxGeometry relative="1" as="geometry">
            <mxPoint x="590" y="890" as="sourcePoint" />
            <mxPoint x="590" y="990" as="targetPoint" />
          </mxGeometry>
        </mxCell>
        <mxCell id="HvyBbh3bn9R6v-NUaFOo-70" value="char c" style="ellipse;whiteSpace=wrap;html=1;aspect=fixed;" vertex="1" parent="1">
          <mxGeometry x="565" y="910" width="50" height="50" as="geometry" />
        </mxCell>
        <mxCell id="HvyBbh3bn9R6v-NUaFOo-72" value="true" style="text;html=1;align=center;verticalAlign=middle;resizable=0;points=[];autosize=1;strokeColor=none;fillColor=none;" vertex="1" parent="1">
          <mxGeometry x="465" y="20" width="40" height="30" as="geometry" />
        </mxCell>
        <mxCell id="HvyBbh3bn9R6v-NUaFOo-73" value="false" style="text;html=1;align=center;verticalAlign=middle;resizable=0;points=[];autosize=1;strokeColor=none;fillColor=none;" vertex="1" parent="1">
          <mxGeometry x="425" y="98" width="50" height="30" as="geometry" />
        </mxCell>
        <mxCell id="HvyBbh3bn9R6v-NUaFOo-74" value="true" style="text;html=1;align=center;verticalAlign=middle;resizable=0;points=[];autosize=1;strokeColor=none;fillColor=none;" vertex="1" parent="1">
          <mxGeometry x="240" y="530" width="40" height="30" as="geometry" />
        </mxCell>
        <mxCell id="HvyBbh3bn9R6v-NUaFOo-75" value="true" style="text;html=1;align=center;verticalAlign=middle;resizable=0;points=[];autosize=1;strokeColor=none;fillColor=none;" vertex="1" parent="1">
          <mxGeometry x="240" y="660" width="40" height="30" as="geometry" />
        </mxCell>
        <mxCell id="HvyBbh3bn9R6v-NUaFOo-76" value="true" style="text;html=1;align=center;verticalAlign=middle;resizable=0;points=[];autosize=1;strokeColor=none;fillColor=none;" vertex="1" parent="1">
          <mxGeometry x="230" y="790" width="40" height="30" as="geometry" />
        </mxCell>
        <mxCell id="HvyBbh3bn9R6v-NUaFOo-77" value="false" style="text;html=1;align=center;verticalAlign=middle;resizable=0;points=[];autosize=1;strokeColor=none;fillColor=none;" vertex="1" parent="1">
          <mxGeometry x="320" y="860" width="50" height="30" as="geometry" />
        </mxCell>
        <mxCell id="HvyBbh3bn9R6v-NUaFOo-78" value="false" style="text;html=1;align=center;verticalAlign=middle;resizable=0;points=[];autosize=1;strokeColor=none;fillColor=none;" vertex="1" parent="1">
          <mxGeometry x="330" y="735" width="50" height="30" as="geometry" />
        </mxCell>
        <mxCell id="HvyBbh3bn9R6v-NUaFOo-79" value="false" style="text;html=1;align=center;verticalAlign=middle;resizable=0;points=[];autosize=1;strokeColor=none;fillColor=none;" vertex="1" parent="1">
          <mxGeometry x="335" y="610" width="50" height="30" as="geometry" />
        </mxCell>
        <mxCell id="HvyBbh3bn9R6v-NUaFOo-80" value="false" style="text;html=1;align=center;verticalAlign=middle;resizable=0;points=[];autosize=1;strokeColor=none;fillColor=none;" vertex="1" parent="1">
          <mxGeometry x="320" y="1010" width="50" height="30" as="geometry" />
        </mxCell>
        <mxCell id="HvyBbh3bn9R6v-NUaFOo-81" value="true" style="text;html=1;align=center;verticalAlign=middle;resizable=0;points=[];autosize=1;strokeColor=none;fillColor=none;" vertex="1" parent="1">
          <mxGeometry x="230" y="928" width="40" height="30" as="geometry" />
        </mxCell>
        <mxCell id="HvyBbh3bn9R6v-NUaFOo-84" value="false" style="text;html=1;align=center;verticalAlign=middle;resizable=0;points=[];autosize=1;strokeColor=none;fillColor=none;" vertex="1" parent="1">
          <mxGeometry x="630" y="410" width="50" height="30" as="geometry" />
        </mxCell>
        <mxCell id="HvyBbh3bn9R6v-NUaFOo-85" value="true" style="text;html=1;align=center;verticalAlign=middle;resizable=0;points=[];autosize=1;strokeColor=none;fillColor=none;" vertex="1" parent="1">
          <mxGeometry x="600" y="478" width="40" height="30" as="geometry" />
        </mxCell>
        <mxCell id="HvyBbh3bn9R6v-NUaFOo-86" value="true" style="text;html=1;align=center;verticalAlign=middle;resizable=0;points=[];autosize=1;strokeColor=none;fillColor=none;" vertex="1" parent="1">
          <mxGeometry x="630" y="998" width="40" height="30" as="geometry" />
        </mxCell>
        <mxCell id="HvyBbh3bn9R6v-NUaFOo-87" value="false" style="text;html=1;align=center;verticalAlign=middle;resizable=0;points=[];autosize=1;strokeColor=none;fillColor=none;" vertex="1" parent="1">
          <mxGeometry x="515" y="990" width="50" height="30" as="geometry" />
        </mxCell>
        <mxCell id="HvyBbh3bn9R6v-NUaFOo-89" value="1" style="text;html=1;align=center;verticalAlign=middle;resizable=0;points=[];autosize=1;strokeColor=none;fillColor=none;" vertex="1" parent="1">
          <mxGeometry x="745" y="1118" width="30" height="30" as="geometry" />
        </mxCell>
        <mxCell id="HvyBbh3bn9R6v-NUaFOo-90" value="2" style="text;html=1;align=center;verticalAlign=middle;resizable=0;points=[];autosize=1;strokeColor=none;fillColor=none;" vertex="1" parent="1">
          <mxGeometry x="1005" y="958" width="30" height="30" as="geometry" />
        </mxCell>
        <mxCell id="HvyBbh3bn9R6v-NUaFOo-91" value="3" style="text;html=1;align=center;verticalAlign=middle;resizable=0;points=[];autosize=1;strokeColor=none;fillColor=none;" vertex="1" parent="1">
          <mxGeometry x="475" y="868" width="30" height="30" as="geometry" />
        </mxCell>
        <mxCell id="HvyBbh3bn9R6v-NUaFOo-93" value="4" style="text;html=1;align=center;verticalAlign=middle;resizable=0;points=[];autosize=1;strokeColor=none;fillColor=none;" vertex="1" parent="1">
          <mxGeometry x="380" y="890" width="30" height="30" as="geometry" />
        </mxCell>
        <mxCell id="HvyBbh3bn9R6v-NUaFOo-94" value="5" style="text;html=1;align=center;verticalAlign=middle;resizable=0;points=[];autosize=1;strokeColor=none;fillColor=none;" vertex="1" parent="1">
          <mxGeometry x="205" y="1038" width="30" height="30" as="geometry" />
        </mxCell>
        <mxCell id="HvyBbh3bn9R6v-NUaFOo-95" value="6" style="text;html=1;align=center;verticalAlign=middle;resizable=0;points=[];autosize=1;strokeColor=none;fillColor=none;rotation=0;" vertex="1" parent="1">
          <mxGeometry x="120" y="610" width="30" height="30" as="geometry" />
        </mxCell>
        <mxCell id="HvyBbh3bn9R6v-NUaFOo-96" value="7" style="text;html=1;align=center;verticalAlign=middle;resizable=0;points=[];autosize=1;strokeColor=none;fillColor=none;" vertex="1" parent="1">
          <mxGeometry x="205" y="718" width="30" height="30" as="geometry" />
        </mxCell>
        <mxCell id="HvyBbh3bn9R6v-NUaFOo-98" value="8" style="text;html=1;align=center;verticalAlign=middle;resizable=0;points=[];autosize=1;strokeColor=none;fillColor=none;" vertex="1" parent="1">
          <mxGeometry x="115" y="458" width="30" height="30" as="geometry" />
        </mxCell>
        <mxCell id="HvyBbh3bn9R6v-NUaFOo-99" value="9" style="text;html=1;align=center;verticalAlign=middle;resizable=0;points=[];autosize=1;strokeColor=none;fillColor=none;" vertex="1" parent="1">
          <mxGeometry x="925" y="278" width="30" height="30" as="geometry" />
        </mxCell>
        <mxCell id="HvyBbh3bn9R6v-NUaFOo-100" value="10" style="text;html=1;align=center;verticalAlign=middle;resizable=0;points=[];autosize=1;strokeColor=none;fillColor=none;" vertex="1" parent="1">
          <mxGeometry x="110" y="138" width="40" height="30" as="geometry" />
        </mxCell>
      </root>
    </mxGraphModel>
  </diagram>
</mxfile>
